<svg xmlns="http://www.w3.org/2000/svg" version="1.1" xmlns:xlink="http://www.w3.org/1999/xlink" xmlns:svgjs="http://svgjs.dev/svgjs" viewBox="0 0 2400 800" opacity="1"><defs><linearGradient x1="50%" y1="0%" x2="50%" y2="100%" id="sssurf-grad"><stop stop-color="hsl(162, 100%, 58%)" stop-opacity="1" offset="0%"></stop><stop stop-color="hsla(179, 58%, 69%, 1)" stop-opacity="1" offset="100%"></stop></linearGradient></defs><g fill="#82dedd" transform="matrix(1,0,0,1,5.82373046875,322.77418518066406)"><path d="M-10,10C75.41666666666666,15.416666666666666,231.25,45.583333333333336,400,36C568.75,26.416666666666664,633.3333333333333,-33.708333333333336,800,-36C966.6666666666667,-38.291666666666664,1033.3333333333333,22.916666666666668,1200,25C1366.6666666666667,27.083333333333332,1433.3333333333333,-32.041666666666664,1600,-26C1766.6666666666667,-19.958333333333336,1833.3333333333333,53.583333333333336,2000,54C2166.6666666666665,54.416666666666664,2264.5833333333335,-96.08333333333333,2400,-24C2535.4166666666665,48.08333333333333,3254.1666666666665,207.5,2650,400C2045.8333333333335,592.5,156.25,795.8333333333334,-500,900" transform="matrix(1,0,0,1,0,49)" opacity="NaN"></path></g></svg>